<svg width="100" height="100" viewBox="0 0 100 100" fill="none" xmlns="http://www.w3.org/2000/svg">
<g clip-path="url(#clip0_13_49)">
<path fill-rule="evenodd" clip-rule="evenodd" d="M51.2358 0.282309L89.7417 18.4177C90.7711 18.9059 91.4299 19.9412 91.4299 21.0824V52.4118C91.4299 77.9118 69.3358 89.9 53.2123 98.6588L51.3946 99.6471C50.9535 99.8824 50.4711 100.006 49.9829 100.006C49.5005 100.006 49.0181 99.8824 48.577 99.6471L46.7593 98.6588C30.63 89.9 8.54169 77.9118 8.54169 52.4118V21.0823C8.54169 19.9411 9.20054 18.9058 10.2299 18.4176L48.7358 0.282257C49.524 -0.0942017 50.4476 -0.0941496 51.2358 0.282309ZM39.4317 19.9647C30.2611 19.9647 22.8023 27.4294 22.8023 36.6C22.8023 45.7705 30.2611 53.2294 39.4317 53.2294C39.5317 53.2294 39.6317 53.2294 39.7317 53.2235L42.7788 56.2706H47.1376V62.3529H53.2199V66.7176L57.9905 71.4823H74.314V55.1588L56.0552 36.8941C56.0611 36.8 56.0611 36.7 56.0611 36.6C56.0611 27.4295 48.6023 19.9647 39.4317 19.9647ZM39.4317 25.8471C45.3552 25.8471 50.1788 30.6764 50.1258 37.1294L49.9199 39.0706L68.4317 57.5941V65.6H60.4258L59.1023 64.2823V56.4706H53.02V50.3883H45.214L41.8904 47.0706L39.4316 47.3471C33.5081 47.3471 28.6846 42.5294 28.6846 36.6C28.6846 30.6764 33.5081 25.8471 39.4317 25.8471ZM39.6911 32.3564C37.2558 32.3564 35.2793 34.3329 35.2793 36.7682C35.2793 39.2035 37.2558 41.18 39.6911 41.18C42.1264 41.18 44.1029 39.2035 44.1029 36.7682C44.1029 34.3329 42.1263 32.3564 39.6911 32.3564Z" fill="#C1E5F5"/>
</g>
<defs>
<clipPath id="clip0_13_49">
<rect width="100" height="100" fill="white"/>
</clipPath>
</defs>
</svg>
