<!DOCTYPE svg PUBLIC "-//W3C//DTD SVG 1.1//EN" "http://www.w3.org/Graphics/SVG/1.1/DTD/svg11.dtd">
<!-- Uploaded to: SVG Repo, www.svgrepo.com, Transformed by: SVG Repo Mixer Tools -->
<svg fill="#2a099f" height="800px" width="800px" version="1.1" id="Layer_1" xmlns="http://www.w3.org/2000/svg" xmlns:xlink="http://www.w3.org/1999/xlink" viewBox="0 0 512 512" xml:space="preserve">
<g id="SVGRepo_bgCarrier" stroke-width="0"/>
<g id="SVGRepo_tracerCarrier" stroke-linecap="round" stroke-linejoin="round"/>
<g id="SVGRepo_iconCarrier"> <g> <g> <path d="M256.001,50.832c-116.92,0-213.605,94.723-213.605,213.605c0,117.782,95.823,213.605,213.605,213.605 s213.605-95.823,213.605-213.605C469.605,146.336,373.716,50.832,256.001,50.832z M324.019,336.813 c-3.907,0-7.796-0.27-11.642-0.802l-43.066,60.481c-6.509,9.143-20.111,9.142-26.621,0.001l-43.067-60.481 c-3.844,0.532-7.733,0.802-11.641,0.802c-46.509,0-84.347-37.842-84.347-84.358c0-46.514,37.838-84.357,84.347-84.357 c26.762,0,51.858,12.515,68.018,34.478c16.13-21.923,41.202-34.478,68.018-34.478c46.509,0,84.347,37.842,84.347,84.357 C408.366,298.97,370.528,336.813,324.019,336.813z"/> </g> </g> <g> <g> <path d="M53.157,39.796c-5.8-6.914-16.107-7.815-23.02-2.013c-39.974,33.543-40.306,95.107-0.252,128.999 c13.95-32.336,34.371-60.619,59.568-83.735L53.157,39.796z"/> </g> </g> <g> <g> <path d="M481.863,37.784c-6.914-5.802-17.22-4.9-23.02,2.013l-36.297,43.251c25.832,23.695,45.973,52.217,59.571,83.733 C522.141,132.913,521.863,71.346,481.863,37.784z"/> </g> </g> <g> <g> <path d="M187.983,200.777c-28.489,0-51.667,23.182-51.667,51.677c0,28.496,23.178,51.678,51.667,51.678 c6.491,0,13.438-1.517,14.268-1.992c16.431-3.651,37.41-22.595,37.41-49.687C239.661,223.8,216.68,200.777,187.983,200.777z M187.677,274.071c-11.938,0-21.616-9.678-21.616-21.616s9.678-21.616,21.616-21.616s21.616,9.678,21.616,21.616 S199.615,274.071,187.677,274.071z"/> </g> </g> <g> <g> <path d="M324.019,200.777c-28.671,0-51.678,22.998-51.678,51.677c0,22.948,15.382,43.379,37.408,49.686 c4.614,1.322,9.415,1.992,14.271,1.992c28.488,0,51.667-23.182,51.667-51.678C375.686,223.959,352.507,200.777,324.019,200.777z M324.324,274.071c-11.938,0-21.616-9.678-21.616-21.616s9.678-21.616,21.616-21.616s21.616,9.678,21.616,21.616 S336.262,274.071,324.324,274.071z"/> </g> </g> </g>
</svg>