<svg width="115" height="115" viewBox="0 0 115 115" fill="none" xmlns="http://www.w3.org/2000/svg">
<rect width="115" height="115" rx="56" fill="#051821"/>
<path d="M37.08 26.41C37.08 27.59 36.87 28.65 36.45 29.59C36.05 30.51 35.53 31.32 34.89 32.02C34.27 32.72 33.62 33.34 32.94 33.88C32.14 34.5 31.14 34.81 29.94 34.81C29.56 34.81 29.29 34.8 29.13 34.78C28.97 34.74 28.86 34.66 28.8 34.54C28.74 34.42 28.66 34.21 28.56 33.91C28.54 33.85 28.53 33.76 28.53 33.64C28.53 33.48 28.56 33.36 28.62 33.28C28.7 33.2 28.78 33.24 28.86 33.4C28.96 33.66 29.08 33.84 29.22 33.94C29.36 34.02 29.6 34.06 29.94 34.06C30.46 34.06 30.88 33.96 31.2 33.76C31.54 33.54 31.87 33.31 32.19 33.07C32.83 32.59 33.43 32.04 33.99 31.42C34.57 30.78 35.04 30.04 35.4 29.2C35.76 28.36 35.94 27.4 35.94 26.32C35.94 25.56 35.75 24.92 35.37 24.4C34.99 23.88 34.48 23.47 33.84 23.17C33.2 22.85 32.5 22.62 31.74 22.48C30.98 22.34 30.22 22.27 29.46 22.27C29.14 22.27 28.81 22.29 28.47 22.33C28.15 22.37 27.84 22.41 27.54 22.45C26.52 22.53 25.69 22.64 25.05 22.78C24.43 22.92 23.9 23.14 23.46 23.44C23.02 23.72 22.58 24.13 22.14 24.67C21.9 24.95 21.75 25.37 21.69 25.93C21.63 26.49 21.6 27 21.6 27.46C21.6 28.32 21.69 28.97 21.87 29.41C22.05 29.85 22.51 30.07 23.25 30.07C23.53 30.07 23.88 29.98 24.3 29.8C24.72 29.6 25.13 29.36 25.53 29.08C25.95 28.78 26.26 28.47 26.46 28.15C26.6 27.93 26.76 27.82 26.94 27.82C27.08 27.82 27.15 27.92 27.15 28.12C27.15 28.28 27.08 28.53 26.94 28.87C26.88 29.01 26.7 29.19 26.4 29.41C26.12 29.63 25.78 29.85 25.38 30.07C24.98 30.27 24.58 30.44 24.18 30.58C23.8 30.72 23.49 30.79 23.25 30.79C22.63 30.79 22.08 30.61 21.6 30.25C21.12 29.89 20.74 29.41 20.46 28.81C20.2 28.21 20.07 27.56 20.07 26.86C20.07 26.26 20.25 25.76 20.61 25.36C20.97 24.94 21.28 24.57 21.54 24.25C22.28 23.37 23.16 22.67 24.18 22.15C25.22 21.63 26.56 21.31 28.2 21.19C28.54 21.15 28.87 21.12 29.19 21.1C29.51 21.08 29.83 21.07 30.15 21.07C31.33 21.07 32.44 21.28 33.48 21.7C34.54 22.1 35.4 22.7 36.06 23.5C36.74 24.28 37.08 25.25 37.08 26.41ZM31.47 23.08C31.49 23.08 31.51 23.08 31.53 23.08C31.55 23.06 31.57 23.05 31.59 23.05C31.69 23.05 31.74 23.1 31.74 23.2C31.74 23.4 31.6 23.55 31.32 23.65C30.66 23.81 30.19 24.08 29.91 24.46C29.65 24.82 29.41 25.31 29.19 25.93C28.89 26.81 28.68 27.63 28.56 28.39C28.44 29.13 28.36 29.89 28.32 30.67C28.28 31.45 28.22 32.34 28.14 33.34C28.06 34.46 27.88 35.57 27.6 36.67C27.34 37.77 26.96 38.77 26.46 39.67C25.96 40.55 25.32 41.26 24.54 41.8C23.76 42.34 22.81 42.61 21.69 42.61C21.03 42.61 20.41 42.37 19.83 41.89C19.25 41.41 18.78 40.8 18.42 40.06C18.08 39.34 17.91 38.63 17.91 37.93C17.91 37.35 18.03 36.86 18.27 36.46C18.51 36.04 18.71 35.64 18.87 35.26C19.21 34.72 19.59 34.2 20.01 33.7C20.45 33.18 20.96 32.76 21.54 32.44C22.12 32.1 22.79 31.93 23.55 31.93C24.49 31.93 25.12 32.18 25.44 32.68C25.76 33.18 25.92 33.87 25.92 34.75C25.92 35.79 25.63 36.59 25.05 37.15C24.47 37.71 23.65 37.99 22.59 37.99C22.27 37.99 22 37.89 21.78 37.69C21.56 37.47 21.45 37.19 21.45 36.85C21.45 36.57 21.52 36.38 21.66 36.28C21.82 36.18 21.98 36.09 22.14 36.01C22.18 35.99 22.23 35.98 22.29 35.98C22.39 35.98 22.48 36.03 22.56 36.13C22.64 36.21 22.68 36.3 22.68 36.4C22.68 36.54 22.61 36.62 22.47 36.64C22.41 36.66 22.34 36.68 22.26 36.7C22.18 36.7 22.14 36.75 22.14 36.85C22.14 37.13 22.29 37.27 22.59 37.27C24.33 37.27 25.2 36.43 25.2 34.75C25.2 34.13 25.1 33.63 24.9 33.25C24.7 32.85 24.25 32.65 23.55 32.65C22.89 32.65 22.31 32.8 21.81 33.1C21.31 33.4 20.88 33.78 20.52 34.24C20.16 34.7 19.84 35.17 19.56 35.65C19.36 35.97 19.16 36.3 18.96 36.64C18.76 36.98 18.66 37.41 18.66 37.93C18.66 38.51 18.75 39.11 18.93 39.73C19.13 40.33 19.42 40.84 19.8 41.26C20.18 41.68 20.63 41.89 21.15 41.89C22.19 41.89 23.05 41.65 23.73 41.17C24.43 40.69 24.98 40.05 25.38 39.25C25.78 38.45 26.08 37.55 26.28 36.55C26.5 35.53 26.65 34.5 26.73 33.46C26.85 31.96 27.04 30.62 27.3 29.44C27.58 28.26 27.95 27 28.41 25.66C28.67 24.9 29.04 24.33 29.52 23.95C30.02 23.57 30.67 23.28 31.47 23.08Z" fill="#C1E5F5"/>
<path d="M66.377 73.623C65.4023 73.623 64.3847 73.2933 63.324 72.634C61.26 71.344 59.2963 68.678 57.433 64.636C57.2037 64.1487 56.7307 63.002 56.014 61.196C55.2973 59.3613 54.3227 56.8387 53.09 53.628C51.37 60.078 49.822 64.4353 48.446 66.7C45.866 71.086 42.1967 73.279 37.438 73.279C35.4027 73.279 33.482 72.7917 31.676 71.817C29.784 70.699 28.494 69.2227 27.806 67.388C27.5767 66.7573 27.4047 66.184 27.29 65.668C27.1753 65.1233 27.118 64.6647 27.118 64.292C27.118 63.3747 27.4477 62.916 28.107 62.916C28.3077 62.916 28.4223 63.0163 28.451 63.217C28.5943 63.7617 28.7233 64.2203 28.838 64.593C28.9527 64.9657 29.053 65.2667 29.139 65.496C29.2823 65.8973 29.4687 66.27 29.698 66.614C29.9273 66.958 30.171 67.2877 30.429 67.603C31.7763 69.1223 33.5823 69.882 35.847 69.882C36.2483 69.882 36.7213 69.796 37.266 69.624C37.868 69.452 38.212 69.366 38.298 69.366C38.384 69.3947 38.427 69.4377 38.427 69.495C38.427 70.011 37.3377 70.269 35.159 70.269C32.063 70.269 30.0277 69.2083 29.053 67.087C30.687 70.7563 33.2813 72.6627 36.836 72.806C36.922 72.7487 37.051 72.6913 37.223 72.634C37.4237 72.5767 37.6673 72.5193 37.954 72.462C39.2727 72.1753 40.921 70.6703 42.899 67.947C43.587 66.9437 44.232 65.9547 44.834 64.98C45.4647 63.9767 46.0237 62.959 46.511 61.927C46.9123 61.0957 47.2707 60.3073 47.586 59.562C47.9013 58.788 48.1737 58.0427 48.403 57.326C48.317 56.6667 48.0447 56.1363 47.586 55.735C47.1273 55.305 46.597 55.1473 45.995 55.262C45.995 54.832 46.167 54.445 46.511 54.101C46.8837 53.757 47.285 53.585 47.715 53.585C48.6323 53.585 49.0623 54.1727 49.005 55.348C49.7503 52.3667 50.123 49.7007 50.123 47.35V47.092C48.0303 43.566 45.6223 41.803 42.899 41.803C40.6917 41.803 39.029 42.7203 37.911 44.555C37.4523 45.329 37.094 46.189 36.836 47.135C36.578 48.081 36.449 49.1417 36.449 50.317C36.449 52.295 36.8217 54.23 37.567 56.122C38.4557 58.1287 39.6167 59.691 41.05 60.809C41.3367 61.0097 41.6807 61.2103 42.082 61.411C42.4833 61.6117 42.9277 61.8267 43.415 62.056C43.673 62.1707 43.802 62.2997 43.802 62.443C43.802 62.6437 43.6587 62.744 43.372 62.744C43.2573 62.744 43.1713 62.7297 43.114 62.701C41.91 62.2423 40.835 61.5543 39.889 60.637C38.943 59.7197 38.0973 58.573 37.352 57.197C36.062 54.6457 35.417 52.037 35.417 49.371C35.417 46.7623 36.019 44.727 37.223 43.265C38.513 41.6023 40.3907 40.771 42.856 40.771C45.3787 40.771 47.6147 41.5737 49.564 43.179C49.306 42.1757 48.8903 41.3013 48.317 40.556C48.145 40.3267 48.059 40.1403 48.059 39.997C48.059 39.7677 48.1737 39.653 48.403 39.653C48.661 39.653 48.8903 39.782 49.091 40.04C49.9223 40.9573 50.4957 42.362 50.811 44.254C51.2983 44.7987 51.7713 45.4437 52.23 46.189C52.6887 46.9343 53.1043 47.7657 53.477 48.683C55.1683 44.0677 57.0747 41.76 59.196 41.76C59.712 41.76 60.185 41.975 60.615 42.405C61.045 42.8063 61.26 43.2793 61.26 43.824C61.26 44.1107 61.2027 44.254 61.088 44.254C61.002 44.254 60.916 44.0963 60.83 43.781C60.6293 42.6917 60.099 42.147 59.239 42.147C57.5477 42.147 55.842 44.8273 54.122 50.188L57.562 59.261C58.3073 61.239 59.024 62.9877 59.712 64.507C60.4287 65.9977 61.1023 67.2733 61.733 68.334C62.0483 67.5313 62.3637 66.5997 62.679 65.539C62.9943 64.4783 63.3097 63.26 63.625 61.884L65.13 55.563C66.4773 49.8583 67.9823 45.6013 69.645 42.792C71.3363 39.9827 73.0563 38.578 74.805 38.578C75.8943 38.578 76.7973 39.0223 77.514 39.911C77.6287 40.0257 77.686 40.169 77.686 40.341C77.686 40.5417 77.6 40.642 77.428 40.642C77.3133 40.642 77.2273 40.556 77.17 40.384C76.8547 39.438 76.1093 38.965 74.934 38.965C74.7907 38.965 74.6473 38.9793 74.504 39.008C74.3607 39.008 74.2173 39.0223 74.074 39.051C71.924 39.7103 69.516 45.415 66.85 56.165C66.506 57.5697 66.1907 58.8167 65.904 59.906C65.6173 60.9667 65.3593 61.8697 65.13 62.615C64.6713 64.1917 64.1983 65.5247 63.711 66.614C63.2237 67.6747 62.7363 68.506 62.249 69.108C63.883 71.602 65.4023 72.849 66.807 72.849C67.6383 72.849 68.4697 72.5193 69.301 71.86C70.1037 71.2007 70.505 70.871 70.505 70.871C70.7057 70.871 70.806 70.9713 70.806 71.172C70.806 71.2867 70.763 71.4157 70.677 71.559C69.5877 72.935 68.183 73.623 66.463 73.623H66.377ZM37.825 72.806C41.0643 72.6627 43.7447 71.43 45.866 69.108C46.6973 68.1907 47.457 67.0727 48.145 65.754C48.8617 64.4067 49.4923 62.8587 50.037 61.11C50.1803 60.7087 50.4527 59.7627 50.854 58.272C51.2553 56.7527 51.8 54.6743 52.488 52.037C52.2013 51.349 51.929 50.7183 51.671 50.145C51.4417 49.5717 51.2123 49.0557 50.983 48.597C50.639 53.155 49.306 57.799 46.984 62.529C44.3467 67.9183 41.2937 71.344 37.825 72.806Z" fill="#C1E5F5"/>
<path d="M74.294 98.509C73.232 98.509 72.386 98.104 71.756 97.294C71.702 97.24 71.675 97.177 71.675 97.105C71.675 96.943 71.783 96.835 71.999 96.781C72.017 96.781 72.026 96.781 72.026 96.781C72.062 96.763 72.08 96.754 72.08 96.754C72.098 96.754 72.08 96.763 72.026 96.781C72.08 96.763 72.134 96.754 72.188 96.754L72.026 96.781H71.999C71.945 96.799 71.918 96.835 71.918 96.889C71.918 97.015 72.143 97.195 72.593 97.429C73.061 97.681 73.664 97.807 74.402 97.807C75.068 97.807 75.797 97.645 76.589 97.321C77.399 96.997 78.218 96.403 79.046 95.539C79.892 94.675 80.702 93.469 81.476 91.921C82.25 90.355 82.934 88.348 83.528 85.9C84.14 83.434 84.599 80.437 84.905 76.909C83.375 77.107 81.845 77.422 80.315 77.854C78.785 78.268 77.399 78.799 76.157 79.447C74.915 80.077 73.916 80.797 73.16 81.607C72.404 82.399 72.026 83.272 72.026 84.226C72.026 84.334 72.026 84.442 72.026 84.55C72.044 84.658 72.062 84.766 72.08 84.874C72.17 85.27 72.287 85.621 72.431 85.927C72.593 86.233 72.818 86.476 73.106 86.656C73.268 86.764 73.349 86.863 73.349 86.953C73.349 87.061 73.277 87.115 73.133 87.115C73.007 87.115 72.881 87.079 72.755 87.007C72.323 86.737 72.008 86.395 71.81 85.981C71.63 85.567 71.495 85.153 71.405 84.739C71.351 84.487 71.324 84.244 71.324 84.01C71.324 83.182 71.567 82.417 72.053 81.715C72.557 80.995 73.205 80.347 73.997 79.771C74.807 79.177 75.689 78.655 76.643 78.205C77.615 77.755 78.569 77.377 79.505 77.071C80.459 76.765 81.323 76.54 82.097 76.396C82.511 76.306 82.961 76.225 83.447 76.153C83.933 76.081 84.446 76.018 84.986 75.964C85.004 75.712 85.022 75.46 85.04 75.208C85.058 74.956 85.076 74.704 85.094 74.452C85.112 74.236 85.184 74.074 85.31 73.966C85.436 73.858 85.571 73.804 85.715 73.804C85.859 73.804 85.994 73.858 86.12 73.966C86.264 74.074 86.336 74.236 86.336 74.452C86.336 74.686 86.327 74.92 86.309 75.154C86.309 75.388 86.3 75.622 86.282 75.856C86.552 75.838 86.822 75.829 87.092 75.829C87.362 75.811 87.641 75.802 87.929 75.802C88.955 75.802 89.945 75.883 90.899 76.045C91.871 76.189 92.726 76.441 93.464 76.801C94.22 77.161 94.778 77.656 95.138 78.286C95.21 78.376 95.246 78.475 95.246 78.583C95.246 78.727 95.192 78.799 95.084 78.799C94.958 78.799 94.841 78.709 94.733 78.529C94.355 77.881 93.599 77.404 92.465 77.098C91.349 76.792 90.044 76.639 88.55 76.639C88.172 76.639 87.785 76.648 87.389 76.666C87.011 76.684 86.624 76.711 86.228 76.747C86.03 79.735 85.625 82.399 85.013 84.739C84.419 87.079 83.69 89.113 82.826 90.841C81.962 92.569 81.035 94 80.045 95.134C79.055 96.268 78.056 97.114 77.048 97.672C76.058 98.23 75.14 98.509 74.294 98.509Z" fill="#C1E5F5"/>
</svg>
